<svg width="22" height="21" viewBox="0 0 22 21" fill="none" xmlns="http://www.w3.org/2000/svg">
<path d="M0 7.08398C0 5.19837 0 4.25556 0.585786 3.66977C1.17157 3.08398 2.11438 3.08398 4 3.08398H18C19.8856 3.08398 20.8284 3.08398 21.4142 3.66977C22 4.25556 22 5.19837 22 7.08398V7.29451C22 7.76592 22 8.00162 21.8536 8.14806C21.7071 8.29451 21.4714 8.29451 21 8.29451H1C0.528596 8.29451 0.292893 8.29451 0.146447 8.14806C0 8.00162 0 7.76592 0 7.29451V7.08398Z" fill="#223151"/>
<path fill-rule="evenodd" clip-rule="evenodd" d="M0 16.8001C0 18.6857 0 19.6285 0.585786 20.2143C1.17157 20.8001 2.11438 20.8001 4 20.8001H18C19.8856 20.8001 20.8284 20.8001 21.4142 20.2143C22 19.6285 22 18.6857 22 16.8001V11.379C22 10.9076 22 10.6719 21.8536 10.5254C21.7071 10.379 21.4714 10.379 21 10.379H1C0.528596 10.379 0.292893 10.379 0.146447 10.5254C0 10.6719 0 10.9076 0 11.379V16.8001ZM5.5 13.463C5.5 12.9916 5.5 12.7559 5.64645 12.6095C5.79289 12.463 6.0286 12.463 6.5 12.463H8.9C9.3714 12.463 9.60711 12.463 9.75355 12.6095C9.9 12.7559 9.9 12.9916 9.9 13.463V13.5472C9.9 14.0187 9.9 14.2544 9.75355 14.4008C9.60711 14.5472 9.3714 14.5472 8.9 14.5472H6.5C6.0286 14.5472 5.79289 14.5472 5.64645 14.4008C5.5 14.2544 5.5 14.0187 5.5 13.5472V13.463ZM5.64645 16.778C5.5 16.9244 5.5 17.1601 5.5 17.6315V17.7158C5.5 18.1872 5.5 18.4229 5.64645 18.5693C5.79289 18.7158 6.0286 18.7158 6.5 18.7158H8.9C9.3714 18.7158 9.60711 18.7158 9.75355 18.5693C9.9 18.4229 9.9 18.1872 9.9 17.7158V17.6315C9.9 17.1601 9.9 16.9244 9.75355 16.778C9.60711 16.6315 9.3714 16.6315 8.9 16.6315H6.5C6.0286 16.6315 5.79289 16.6315 5.64645 16.778ZM12.1 13.463C12.1 12.9916 12.1 12.7559 12.2464 12.6095C12.3929 12.463 12.6286 12.463 13.1 12.463H15.5C15.9714 12.463 16.2071 12.463 16.3536 12.6095C16.5 12.7559 16.5 12.9916 16.5 13.463V13.5472C16.5 14.0187 16.5 14.2544 16.3536 14.4008C16.2071 14.5472 15.9714 14.5472 15.5 14.5472H13.1C12.6286 14.5472 12.3929 14.5472 12.2464 14.4008C12.1 14.2544 12.1 14.0187 12.1 13.5472V13.463ZM12.2464 16.778C12.1 16.9244 12.1 17.1601 12.1 17.6315V17.7158C12.1 18.1872 12.1 18.4229 12.2464 18.5693C12.3929 18.7158 12.6286 18.7158 13.1 18.7158H15.5C15.9714 18.7158 16.2071 18.7158 16.3536 18.5693C16.5 18.4229 16.5 18.1872 16.5 17.7158V17.6315C16.5 17.1601 16.5 16.9244 16.3536 16.778C16.2071 16.6315 15.9714 16.6315 15.5 16.6315H13.1C12.6286 16.6315 12.3929 16.6315 12.2464 16.778Z" fill="#223151"/>
<path d="M5.5 1L5.5 4.12632" stroke="#223151" stroke-width="2" stroke-linecap="round"/>
<path d="M16.5 1L16.5 4.12632" stroke="#223151" stroke-width="2" stroke-linecap="round"/>
</svg>
