<svg width="16" height="20" viewBox="0 0 16 20" fill="none" xmlns="http://www.w3.org/2000/svg">
<path d="M9.17157 1H5C3.11438 1 2.17157 1 1.58579 1.56075C1 2.12151 1 3.02402 1 4.82906V14.4017C1 16.2067 1 17.1093 1.58579 17.67C2.17157 18.2308 3.11438 18.2308 5 18.2308H11C12.8856 18.2308 13.8284 18.2308 14.4142 17.67C15 17.1093 15 16.2067 15 14.4017V6.57935C15 6.18807 15 5.99243 14.9239 5.81651C14.8478 5.64059 14.7032 5.50225 14.4142 5.22557L10.5858 1.56075C10.2968 1.28407 10.1522 1.14573 9.96847 1.07287C9.7847 1 9.58032 1 9.17157 1Z" stroke="#1F2221" stroke-width="2"/>
<path d="M5 10.5726L11 10.5726" stroke="#1F2221" stroke-width="2" stroke-linecap="round"/>
<path d="M5 14.4017L9 14.4017" stroke="#1F2221" stroke-width="2" stroke-linecap="round"/>
<path d="M9 1V4.82906C9 5.73158 9 6.18284 9.29289 6.46321C9.58579 6.74359 10.0572 6.74359 11 6.74359H15" stroke="#1F2221" stroke-width="2"/>
</svg>
