<svg width="31" height="31" viewBox="0 0 31 31" fill="none" xmlns="http://www.w3.org/2000/svg">
<path d="M15.3432 6.59477C15.3432 6.35673 15.3432 6.23771 15.4211 6.16377C15.499 6.08984 15.6137 6.09584 15.843 6.10784C17.3476 6.18659 18.8148 6.62002 20.1237 7.3757C21.5771 8.21485 22.7841 9.42181 23.6232 10.8753C24.4624 12.3287 24.9042 13.9774 24.9042 15.6557C24.9042 17.334 24.4624 18.9828 23.6232 20.4362C22.7841 21.8897 21.5771 23.0966 20.1237 23.9358C18.6702 24.7749 17.0215 25.2167 15.3432 25.2167C13.6649 25.2167 12.0162 24.7749 10.5627 23.9358C9.25384 23.1801 8.14486 22.1262 7.32437 20.8625C7.19931 20.6699 7.13679 20.5736 7.16186 20.4692C7.18694 20.3648 7.29001 20.3053 7.49617 20.1862L15.0932 15.8001C15.2152 15.7296 15.2762 15.6944 15.3097 15.6364C15.3432 15.5784 15.3432 15.508 15.3432 15.3671V6.59477Z" fill="white"/>
<circle cx="15.3432" cy="15.6557" r="13.748" stroke="white" stroke-width="2"/>
</svg>
