<svg width="31" height="31" viewBox="0 0 31 31" fill="none" xmlns="http://www.w3.org/2000/svg">
<path d="M15.3332 6.59477C15.3332 6.35673 15.3332 6.23771 15.4111 6.16377C15.489 6.08984 15.6037 6.09584 15.833 6.10784C17.3376 6.18659 18.8048 6.62002 20.1137 7.3757C21.5671 8.21485 22.7741 9.42181 23.6132 10.8753C24.4524 12.3287 24.8942 13.9774 24.8942 15.6557C24.8942 17.334 24.4524 18.9828 23.6132 20.4362C22.7741 21.8897 21.5671 23.0966 20.1137 23.9358C18.6602 24.7749 17.0115 25.2167 15.3332 25.2167C13.6549 25.2167 12.0062 24.7749 10.5527 23.9358C9.24383 23.1801 8.13485 22.1262 7.31436 20.8625C7.1893 20.6699 7.12678 20.5736 7.15185 20.4692C7.17693 20.3648 7.28 20.3053 7.48616 20.1862L15.0832 15.8001C15.2052 15.7296 15.2662 15.6944 15.2997 15.6364C15.3332 15.5784 15.3332 15.508 15.3332 15.3671V6.59477Z" fill="#F9C917"/>
<circle cx="15.3332" cy="15.6557" r="13.748" stroke="#F9C917" stroke-width="2"/>
</svg>
