<svg width="36" height="36" viewBox="0 0 36 36" fill="none" xmlns="http://www.w3.org/2000/svg">
<rect width="36" height="36" rx="8" fill="#F9C917"/>
<path fill-rule="evenodd" clip-rule="evenodd" d="M18.1061 10.0933V14.2372L18.1061 14.2917C18.106 14.7157 18.1059 15.1278 18.1516 15.4678C18.2031 15.851 18.3287 16.2882 18.6919 16.6515C19.0551 17.0147 19.4924 17.1402 19.8756 17.1917C20.2155 17.2374 20.6276 17.2373 21.0517 17.2372H21.0517L21.1061 17.2372H25.1404V22.3814C25.1404 24.8639 25.1404 26.1052 24.383 26.8765C23.6255 27.6477 22.4064 27.6477 19.9681 27.6477H16.5199C14.0817 27.6477 12.8626 27.6477 12.1051 26.8765C11.3477 26.1052 11.3477 24.8639 11.3477 22.3814V15.3596C11.3477 12.877 11.3477 11.6357 12.1051 10.8645C12.8626 10.0933 14.0817 10.0933 16.5199 10.0933H18.1061ZM20.1061 10.1022V14.2372C20.1061 14.7369 20.1082 15.0111 20.1338 15.2013L20.1348 15.2085L20.1421 15.2095C20.3323 15.2351 20.6064 15.2372 21.1061 15.2372H25.1325C25.1202 14.9424 25.0889 14.7331 25.0092 14.5372C24.8779 14.2146 24.6288 13.9609 24.1305 13.4536L24.1305 13.4536L21.8401 11.1216C21.3418 10.6142 21.0927 10.3605 20.7758 10.2269C20.5874 10.1474 20.3863 10.1152 20.1061 10.1022ZM14.6579 19.748C14.6579 19.1957 15.1056 18.748 15.6579 18.748H20.8302C21.3825 18.748 21.8302 19.1957 21.8302 19.748C21.8302 20.3003 21.3825 20.748 20.8302 20.748H15.6579C15.1056 20.748 14.6579 20.3003 14.6579 19.748ZM15.6579 22.259C15.1056 22.259 14.6579 22.7068 14.6579 23.259C14.6579 23.8113 15.1056 24.259 15.6579 24.259H19.1061C19.6584 24.259 20.1061 23.8113 20.1061 23.259C20.1061 22.7068 19.6584 22.259 19.1061 22.259H15.6579Z" fill="white"/>
</svg>
