<svg width="58" height="18" viewBox="0 0 58 18" fill="none" xmlns="http://www.w3.org/2000/svg">
<rect width="58" height="18" rx="9" fill="white"/>
<circle cx="13.5" cy="8.5" r="2.5" fill="#F9C917"/>
<path d="M29.992 10.008H27.896L27.56 11H26.128L28.16 5.384H29.744L31.776 11H30.328L29.992 10.008ZM29.64 8.952L28.944 6.896L28.256 8.952H29.64ZM33.7624 7.168C33.8958 6.96 34.0798 6.792 34.3144 6.664C34.5491 6.536 34.8238 6.472 35.1384 6.472C35.5064 6.472 35.8398 6.56533 36.1384 6.752C36.4371 6.93867 36.6718 7.20533 36.8424 7.552C37.0184 7.89867 37.1064 8.30133 37.1064 8.76C37.1064 9.21867 37.0184 9.624 36.8424 9.976C36.6718 10.3227 36.4371 10.592 36.1384 10.784C35.8398 10.9707 35.5064 11.064 35.1384 11.064C34.8291 11.064 34.5544 11 34.3144 10.872C34.0798 10.744 33.8958 10.5787 33.7624 10.376V13.128H32.3944V6.536H33.7624V7.168ZM35.7144 8.76C35.7144 8.41867 35.6184 8.152 35.4264 7.96C35.2398 7.76267 35.0078 7.664 34.7304 7.664C34.4584 7.664 34.2264 7.76267 34.0344 7.96C33.8478 8.15733 33.7544 8.42667 33.7544 8.768C33.7544 9.10933 33.8478 9.37867 34.0344 9.576C34.2264 9.77333 34.4584 9.872 34.7304 9.872C35.0024 9.872 35.2344 9.77333 35.4264 9.576C35.6184 9.37333 35.7144 9.10133 35.7144 8.76ZM39.1921 7.168C39.3255 6.96 39.5095 6.792 39.7441 6.664C39.9788 6.536 40.2535 6.472 40.5681 6.472C40.9361 6.472 41.2695 6.56533 41.5681 6.752C41.8668 6.93867 42.1015 7.20533 42.2721 7.552C42.4481 7.89867 42.5361 8.30133 42.5361 8.76C42.5361 9.21867 42.4481 9.624 42.2721 9.976C42.1015 10.3227 41.8668 10.592 41.5681 10.784C41.2695 10.9707 40.9361 11.064 40.5681 11.064C40.2588 11.064 39.9841 11 39.7441 10.872C39.5095 10.744 39.3255 10.5787 39.1921 10.376V13.128H37.8241V6.536H39.1921V7.168ZM41.1441 8.76C41.1441 8.41867 41.0481 8.152 40.8561 7.96C40.6695 7.76267 40.4375 7.664 40.1601 7.664C39.8881 7.664 39.6561 7.76267 39.4641 7.96C39.2775 8.15733 39.1841 8.42667 39.1841 8.768C39.1841 9.10933 39.2775 9.37867 39.4641 9.576C39.6561 9.77333 39.8881 9.872 40.1601 9.872C40.4321 9.872 40.6641 9.77333 40.8561 9.576C41.0481 9.37333 41.1441 9.10133 41.1441 8.76Z" fill="#223151"/>
</svg>
