<svg width="50" height="50" viewBox="0 0 50 50" fill="none" xmlns="http://www.w3.org/2000/svg">
<rect width="50" height="50" rx="12" fill="#FF968E"/>
<path d="M27.5556 28.75V29.8125C27.5556 30.6579 27.2219 31.4686 26.6281 32.0664C26.0342 32.6642 25.2287 33 24.3889 33H20.1667C19.3268 33 18.5214 32.6642 17.9275 32.0664C17.3336 31.4686 17 30.6579 17 29.8125V19.1875C17 18.3421 17.3336 17.5314 17.9275 16.9336C18.5214 16.3358 19.3268 16 20.1667 16H24.3889C25.2287 16 26.0342 16.3358 26.6281 16.9336C27.2219 17.5314 27.5556 18.3421 27.5556 19.1875V20.25M31.7778 28.75L36 24.5L31.7778 28.75ZM36 24.5L31.7778 20.25L36 24.5ZM36 24.5H21.2222H36Z" stroke="white" stroke-width="2" stroke-linecap="round" stroke-linejoin="round"/>
</svg>
