<svg width="29" height="28" viewBox="0 0 29 28" fill="none" xmlns="http://www.w3.org/2000/svg">
<path d="M6.27317 8.60028C6.32362 8.14624 6.34885 7.91922 6.38053 7.72322C6.98315 3.99576 10.1099 1.19715 13.8811 1.00985C14.0794 1 14.3079 1 14.7647 1V1C15.2215 1 15.45 1 15.6483 1.00985C19.4195 1.19715 22.5463 3.99576 23.1489 7.72322C23.1806 7.91922 23.2058 8.14624 23.2562 8.60029L23.6414 12.0663C23.7479 13.0248 23.8011 13.5041 23.91 13.9691C24.0263 14.466 24.1899 14.9507 24.3985 15.4165C24.5938 15.8523 24.8419 16.2658 25.3381 17.0928L26.712 19.3828C27.5178 20.7257 27.9207 21.3972 27.6334 21.9045C27.3462 22.4118 26.5631 22.4118 24.997 22.4118H4.53238C2.96627 22.4118 2.18322 22.4118 1.89599 21.9045C1.60876 21.3972 2.01164 20.7257 2.8174 19.3828L4.19136 17.0928C4.68755 16.2658 4.93565 15.8523 5.1309 15.4165C5.33955 14.9507 5.50315 14.466 5.61946 13.9691C5.72831 13.5041 5.78156 13.0248 5.88806 12.0663L6.27317 8.60028Z" stroke="#223151" stroke-width="2"/>
<path d="M10.3328 23.0325C10.5942 24.1707 11.1703 25.1765 11.9716 25.8938C12.7729 26.6112 13.7547 27 14.7647 27C15.7747 27 16.7565 26.6112 17.5578 25.8938C18.3591 25.1765 18.9352 24.1707 19.1966 23.0325" stroke="#223151" stroke-width="2" stroke-linecap="round"/>
<circle cx="22.0294" cy="5.5" r="4.5" fill="#F9C917"/>
</svg>
