<svg width="50" height="50" viewBox="0 0 50 50" fill="none" xmlns="http://www.w3.org/2000/svg">
<rect width="50" height="50" rx="12" fill="#E3EBFF"/>
<path d="M22.7319 16.3902C23.1816 14.5366 25.8184 14.5366 26.2681 16.3902C26.3355 16.6686 26.4678 16.9272 26.6541 17.1449C26.8404 17.3626 27.0754 17.5332 27.3401 17.6428C27.6048 17.7525 27.8917 17.7981 28.1773 17.776C28.463 17.7538 28.7394 17.6645 28.984 17.5154C30.6127 16.5232 32.4779 18.3873 31.4857 20.0171C31.3367 20.2616 31.2476 20.5378 31.2255 20.8233C31.2034 21.1087 31.249 21.3954 31.3585 21.6599C31.468 21.9244 31.6384 22.1594 31.8559 22.3457C32.0733 22.5319 32.3316 22.6643 32.6098 22.7319C34.4634 23.1816 34.4634 25.8184 32.6098 26.2681C32.3314 26.3355 32.0728 26.4678 31.8551 26.6541C31.6374 26.8404 31.4668 27.0754 31.3572 27.3401C31.2475 27.6048 31.2019 27.8917 31.224 28.1773C31.2462 28.463 31.3355 28.7394 31.4846 28.984C32.4768 30.6127 30.6127 32.4779 28.9829 31.4857C28.7384 31.3367 28.4622 31.2476 28.1767 31.2255C27.8913 31.2034 27.6046 31.249 27.3401 31.3585C27.0756 31.468 26.8406 31.6384 26.6543 31.8559C26.4681 32.0733 26.3357 32.3316 26.2681 32.6098C25.8184 34.4634 23.1816 34.4634 22.7319 32.6098C22.6645 32.3314 22.5322 32.0728 22.3459 31.8551C22.1596 31.6374 21.9246 31.4668 21.6599 31.3572C21.3952 31.2475 21.1083 31.2019 20.8227 31.224C20.537 31.2462 20.2606 31.3355 20.016 31.4846C18.3873 32.4768 16.5221 30.6127 17.5143 28.9829C17.6633 28.7384 17.7524 28.4622 17.7745 28.1767C17.7966 27.8913 17.751 27.6046 17.6415 27.3401C17.532 27.0756 17.3616 26.8406 17.1441 26.6543C16.9267 26.4681 16.6684 26.3357 16.3902 26.2681C14.5366 25.8184 14.5366 23.1816 16.3902 22.7319C16.6686 22.6645 16.9272 22.5322 17.1449 22.3459C17.3626 22.1596 17.5332 21.9246 17.6428 21.6599C17.7525 21.3952 17.7981 21.1083 17.776 20.8227C17.7538 20.537 17.6645 20.2606 17.5154 20.016C16.5232 18.3873 18.3873 16.5221 20.0171 17.5143C21.0684 18.1561 22.4406 17.5882 22.7319 16.3902Z" stroke="#223151" stroke-width="2" stroke-linecap="round" stroke-linejoin="round"/>
<path d="M27.6663 24.5C27.6663 25.3399 27.3327 26.1453 26.7388 26.7392C26.145 27.3331 25.3395 27.6667 24.4997 27.6667C23.6598 27.6667 22.8544 27.3331 22.2605 26.7392C21.6666 26.1453 21.333 25.3399 21.333 24.5C21.333 23.6602 21.6666 22.8547 22.2605 22.2609C22.8544 21.667 23.6598 21.3334 24.4997 21.3334C25.3395 21.3334 26.145 21.667 26.7388 22.2609C27.3327 22.8547 27.6663 23.6602 27.6663 24.5V24.5Z" stroke="#223151" stroke-width="2" stroke-linecap="round" stroke-linejoin="round"/>
</svg>
