<svg width="43" height="43" viewBox="0 0 43 43" fill="none" xmlns="http://www.w3.org/2000/svg">
<rect width="43" height="43" rx="10" fill="#2BC5E7"/>
<path d="M20.5625 11C20.2144 11 19.8806 11.1383 19.6344 11.3844C19.3883 11.6306 19.25 11.9644 19.25 12.3125C19.25 12.6606 19.3883 12.9944 19.6344 13.2406C19.8806 13.4867 20.2144 13.625 20.5625 13.625H23.1875C23.5356 13.625 23.8694 13.4867 24.1156 13.2406C24.3617 12.9944 24.5 12.6606 24.5 12.3125C24.5 11.9644 24.3617 11.6306 24.1156 11.3844C23.8694 11.1383 23.5356 11 23.1875 11H20.5625Z" fill="white"/>
<path fill-rule="evenodd" clip-rule="evenodd" d="M14 14.9375C14 14.2413 14.2766 13.5736 14.7688 13.0813C15.2611 12.5891 15.9288 12.3125 16.625 12.3125C16.625 13.3568 17.0398 14.3583 17.7783 15.0967C18.5167 15.8352 19.5182 16.25 20.5625 16.25H23.1875C24.2318 16.25 25.2333 15.8352 25.9717 15.0967C26.7102 14.3583 27.125 13.3568 27.125 12.3125C27.8212 12.3125 28.4889 12.5891 28.9812 13.0813C29.4734 13.5736 29.75 14.2413 29.75 14.9375V29.375C29.75 30.0712 29.4734 30.7389 28.9812 31.2312C28.4889 31.7234 27.8212 32 27.125 32H16.625C15.9288 32 15.2611 31.7234 14.7688 31.2312C14.2766 30.7389 14 30.0712 14 29.375V14.9375ZM17.9375 20.1875C17.5894 20.1875 17.2556 20.3258 17.0094 20.5719C16.7633 20.8181 16.625 21.1519 16.625 21.5C16.625 21.8481 16.7633 22.1819 17.0094 22.4281C17.2556 22.6742 17.5894 22.8125 17.9375 22.8125H17.9506C18.2987 22.8125 18.6326 22.6742 18.8787 22.4281C19.1248 22.1819 19.2631 21.8481 19.2631 21.5C19.2631 21.1519 19.1248 20.8181 18.8787 20.5719C18.6326 20.3258 18.2987 20.1875 17.9506 20.1875H17.9375ZM21.875 20.1875C21.5269 20.1875 21.1931 20.3258 20.9469 20.5719C20.7008 20.8181 20.5625 21.1519 20.5625 21.5C20.5625 21.8481 20.7008 22.1819 20.9469 22.4281C21.1931 22.6742 21.5269 22.8125 21.875 22.8125H25.8125C26.1606 22.8125 26.4944 22.6742 26.7406 22.4281C26.9867 22.1819 27.125 21.8481 27.125 21.5C27.125 21.1519 26.9867 20.8181 26.7406 20.5719C26.4944 20.3258 26.1606 20.1875 25.8125 20.1875H21.875ZM17.9375 25.4375C17.5894 25.4375 17.2556 25.5758 17.0094 25.8219C16.7633 26.0681 16.625 26.4019 16.625 26.75C16.625 27.0981 16.7633 27.4319 17.0094 27.6781C17.2556 27.9242 17.5894 28.0625 17.9375 28.0625H17.9506C18.2987 28.0625 18.6326 27.9242 18.8787 27.6781C19.1248 27.4319 19.2631 27.0981 19.2631 26.75C19.2631 26.4019 19.1248 26.0681 18.8787 25.8219C18.6326 25.5758 18.2987 25.4375 17.9506 25.4375H17.9375ZM21.875 25.4375C21.5269 25.4375 21.1931 25.5758 20.9469 25.8219C20.7008 26.0681 20.5625 26.4019 20.5625 26.75C20.5625 27.0981 20.7008 27.4319 20.9469 27.6781C21.1931 27.9242 21.5269 28.0625 21.875 28.0625H25.8125C26.1606 28.0625 26.4944 27.9242 26.7406 27.6781C26.9867 27.4319 27.125 27.0981 27.125 26.75C27.125 26.4019 26.9867 26.0681 26.7406 25.8219C26.4944 25.5758 26.1606 25.4375 25.8125 25.4375H21.875Z" fill="white"/>
</svg>
