<svg width="43" height="43" viewBox="0 0 43 43" fill="none" xmlns="http://www.w3.org/2000/svg">
<rect width="43" height="43" rx="10" fill="#A06AF9"/>
<path d="M25 16.4C25 17.3017 24.6313 18.1665 23.9749 18.8042C23.3185 19.4418 22.4283 19.8 21.5 19.8C20.5717 19.8 19.6815 19.4418 19.0251 18.8042C18.3687 18.1665 18 17.3017 18 16.4C18 15.4983 18.3687 14.6335 19.0251 13.9958C19.6815 13.3582 20.5717 13 21.5 13C22.4283 13 23.3185 13.3582 23.9749 13.9958C24.6313 14.6335 25 15.4983 25 16.4ZM30.8333 18.6667C30.8333 19.2678 30.5875 19.8444 30.1499 20.2694C29.7123 20.6945 29.1188 20.9333 28.5 20.9333C27.8812 20.9333 27.2877 20.6945 26.8501 20.2694C26.4125 19.8444 26.1667 19.2678 26.1667 18.6667C26.1667 18.0655 26.4125 17.489 26.8501 17.0639C27.2877 16.6388 27.8812 16.4 28.5 16.4C29.1188 16.4 29.7123 16.6388 30.1499 17.0639C30.5875 17.489 30.8333 18.0655 30.8333 18.6667ZM26.1667 26.6C26.1667 25.3977 25.675 24.2446 24.7998 23.3944C23.9247 22.5443 22.7377 22.0667 21.5 22.0667C20.2623 22.0667 19.0753 22.5443 18.2002 23.3944C17.325 24.2446 16.8333 25.3977 16.8333 26.6V30H26.1667V26.6ZM16.8333 18.6667C16.8333 19.2678 16.5875 19.8444 16.1499 20.2694C15.7123 20.6945 15.1188 20.9333 14.5 20.9333C13.8812 20.9333 13.2877 20.6945 12.8501 20.2694C12.4125 19.8444 12.1667 19.2678 12.1667 18.6667C12.1667 18.0655 12.4125 17.489 12.8501 17.0639C13.2877 16.6388 13.8812 16.4 14.5 16.4C15.1188 16.4 15.7123 16.6388 16.1499 17.0639C16.5875 17.489 16.8333 18.0655 16.8333 18.6667ZM28.5 30V26.6C28.5017 25.4477 28.2005 24.3141 27.625 23.3065C28.1422 23.1779 28.6829 23.1658 29.2057 23.2711C29.7285 23.3763 30.2196 23.5962 30.6416 23.9139C31.0637 24.2316 31.4054 24.6387 31.6408 25.1042C31.8762 25.5698 31.9991 26.0813 32 26.6V30H28.5ZM15.375 23.3065C14.7995 24.3141 14.4984 25.4477 14.5 26.6V30H11V26.6C10.9998 26.081 11.1219 25.5688 11.3569 25.1027C11.592 24.6366 11.9338 24.229 12.3561 23.9111C12.7784 23.5932 13.2701 23.3734 13.7934 23.2686C14.3166 23.1638 14.8577 23.1768 15.375 23.3065Z" fill="white"/>
</svg>
