<svg width="22" height="23" viewBox="0 0 22 23" fill="none" xmlns="http://www.w3.org/2000/svg">
<path fill-rule="evenodd" clip-rule="evenodd" d="M11 22.3999C17.0751 22.3999 22 17.475 22 11.3999C22 5.32477 17.0751 0.399902 11 0.399902C4.92487 0.399902 0 5.32477 0 11.3999C0 17.475 4.92487 22.3999 11 22.3999ZM11.5 4.67749C11.5 4.40135 11.2761 4.17749 11 4.17749C10.7239 4.17749 10.5 4.40135 10.5 4.67749V11.1497C10.5 11.5639 10.8358 11.8997 11.25 11.8997H15.2778C15.5539 11.8997 15.7778 11.6759 15.7778 11.3997C15.7778 11.1236 15.5539 10.8997 15.2778 10.8997H11.5V4.67749Z" fill="white"/>
</svg>
