<svg width="50" height="50" viewBox="0 0 50 50" fill="none" xmlns="http://www.w3.org/2000/svg">
<rect width="50" height="50" rx="12" fill="#E3EBFF"/>
<path d="M27.1347 21.6704L27.1347 21.6704C27.9013 20.9038 28.2795 19.9907 28.2795 18.9075C28.2795 17.8248 27.9014 16.9117 27.1347 16.1447C27.1346 16.1447 27.1346 16.1446 27.1345 16.1446M27.1347 21.6704L27.1345 16.1446M27.1347 21.6704C26.3681 22.4371 25.4548 22.8153 24.3717 22.8153M27.1347 21.6704L24.3717 22.8153M27.1345 16.1446C26.3677 15.3781 25.4546 15 24.3717 15C23.2884 15 22.3754 15.3782 21.6088 16.1448C20.8421 16.9114 20.4639 17.8246 20.4639 18.9075C20.4639 19.9907 20.8421 20.9038 21.6088 21.6704L27.1345 16.1446ZM24.3717 22.8153C23.289 22.8153 22.3758 22.437 21.6089 21.6705L24.3717 22.8153Z" stroke="#223151" stroke-width="2"/>
<path d="M31.5247 28.5232L31.5246 28.523C31.4148 28.1797 31.264 27.8367 31.0756 27.5052L31.9449 27.011L31.0756 27.5052C30.8884 27.1759 30.6765 26.9033 30.4513 26.6879L30.4511 26.6878C30.2368 26.4827 29.962 26.3057 29.6218 26.1708L31.5247 28.5232ZM31.5247 28.5232C31.6371 28.8745 31.7335 29.2666 31.8094 29.6891L31.5247 28.5232ZM27.428 26.6913L27.4269 26.692C27.0629 26.9239 26.6148 27.1146 26.1223 27.2737L27.428 26.6913ZM27.428 26.6913C27.7421 26.4906 28.0244 26.3085 28.2667 26.1505C28.4309 26.0437 28.5189 25.9961 28.5652 25.9749M27.428 26.6913L28.5652 25.9749M21.5722 26.6919L21.5715 26.6914C21.2605 26.4927 20.9781 26.3107 20.7324 26.1506L20.7322 26.1505C20.5681 26.0435 20.4801 25.9959 20.4339 25.9748C20.0365 25.9799 19.6837 26.0496 19.3778 26.1708L19.3776 26.1709C19.0378 26.3054 18.7629 26.4823 18.5482 26.6877L21.5722 26.6919ZM21.5722 26.6919C21.9362 26.9241 22.3847 27.1149 22.8768 27.2738L21.5722 26.6919ZM17.924 27.5048L17.924 27.5049C17.7356 27.8365 17.5848 28.1795 17.4748 28.523L17.924 27.5048ZM17.924 27.5048C18.1105 27.1764 18.3225 26.9038 18.548 26.6879L17.924 27.5048ZM17.0383 30.8697L17.0383 30.8699C17.013 31.2357 17 31.6173 17 32.004C17 32.8402 17.2571 33.423 17.6946 33.8396C18.1366 34.2601 18.7461 34.5083 19.5944 34.5083H29.4056C30.2541 34.5083 30.8634 34.2602 31.3056 33.8393L31.3056 33.8393C31.7427 33.4234 31.9999 32.8409 32 32.0042L17.0383 30.8697ZM17.0383 30.8697C17.063 30.5133 17.1135 30.1164 17.1901 29.6894L17.0383 30.8697ZM31.9612 30.8694C31.9366 30.514 31.886 30.1172 31.8094 29.6894L31.9612 30.8694ZM31.9612 30.8694L32.9588 30.8003M31.9612 30.8694L32.9588 30.8003M32.9588 30.8003L31.9613 30.8702M32.9588 30.8003L31.9613 30.8702M28.5652 25.9749C28.9626 25.98 29.3156 26.0497 29.6217 26.1707L28.5652 25.9749ZM31.9613 30.8702C31.9867 31.2337 31.9998 31.6153 32 32.0038L31.9613 30.8702ZM24.4995 27.5348C25.0456 27.5348 25.5916 27.4454 26.1218 27.2739L22.877 27.2739C23.4074 27.4453 23.9533 27.5348 24.4995 27.5348ZM17.1901 29.6893C17.2659 29.267 17.3623 28.8748 17.4747 28.5233L17.1901 29.6893Z" stroke="#223151" stroke-width="2"/>
</svg>
